<?xml version="1.0" encoding="UTF-8" standalone="no"?>
<svg
   xmlns="http://www.w3.org/2000/svg"
   width="48"
   height="48"
   viewBox="0 0 48 48">
  <circle
     style="fill:#00aa00;fill-opacity:1;stroke:none"
     cx="24"
     cy="24"
     r="22" />
  <path
     style="fill:#ffffff;fill-opacity:1;stroke:none"
     d="m 24,6 c -1.1,0 -2,0.9 -2,2 v 2 h -4 v 4 h 4 v 20 h -4 v 4 h 4 v 2 c 0,1.1 0.9,2 2,2 1.1,0 2,-0.9 2,-2 v -2 h 4 v -4 h -4 V 14 h 4 v -4 h -4 V 8 c 0,-1.1 -0.9,-2 -2,-2 z m -2,10 h 4 c 2.2,0 4,1.8 4,4 v 8 c 0,2.2 -1.8,4 -4,4 h -4 c -2.2,0 -4,-1.8 -4,-4 v -8 c 0,-2.2 1.8,-4 4,-4 z m 0,4 v 8 h 4 v -8 z" />
</svg>
